<?xml version="1.0" standalone="no"?>
<!DOCTYPE svg PUBLIC "-//W3C//DTD SVG 20010904//EN"
 "http://www.w3.org/TR/2001/REC-SVG-20010904/DTD/svg10.dtd">
<svg version="1.0" xmlns="http://www.w3.org/2000/svg"
 width="800.000000pt" height="800.000000pt" viewBox="0 0 800.000000 800.000000"
 preserveAspectRatio="xMidYMid meet">
<metadata>
Created by potrace 1.11, written by Peter Selinger 2001-2013
</metadata>
<g transform="translate(0.000000,800.000000) scale(0.100000,-0.100000)"
fill="#000000" stroke="none">
<path d="M0 4000 l0 -4000 4000 0 4000 0 0 4000 0 4000 -4000 0 -4000 0 0
-4000z m1827 3585 c24 -17 123 -174 182 -287 47 -92 80 -136 121 -163 17 -12
37 -38 46 -63 20 -50 88 -116 113 -108 98 32 108 39 71 49 -27 7 -25 26 3 31
12 3 67 7 122 10 55 4 182 14 283 23 149 13 200 14 270 5 162 -22 336 -41 472
-52 157 -13 305 -50 333 -82 20 -24 77 -52 147 -74 41 -12 47 -12 78 6 18 11
37 20 42 20 5 0 30 13 57 29 26 15 104 61 173 101 68 40 156 98 195 128 38 30
79 59 90 64 11 5 31 15 45 23 13 8 49 17 78 21 100 12 165 -26 188 -109 6 -23
28 -79 48 -124 57 -126 85 -255 96 -428 4 -82 16 -184 25 -225 20 -94 10 -280
-15 -280 -4 0 -17 -35 -29 -77 -12 -43 -29 -90 -37 -105 -7 -14 -14 -32 -14
-39 0 -30 -57 -123 -92 -151 -61 -48 -87 -120 -55 -147 17 -13 82 17 104 49
21 30 30 25 38 -22 10 -52 9 -61 -11 -116 -25 -69 -85 -87 -108 -32 -3 8 -4 3
-2 -12 4 -35 -10 -37 -18 -3 -7 28 -21 33 -29 10 -4 -8 -23 -22 -44 -32 -21
-9 -41 -19 -45 -21 -3 -1 -18 9 -32 24 -14 16 -28 26 -31 23 -5 -6 10 -95 31
-181 8 -32 14 -71 14 -88 0 -17 8 -54 18 -83 17 -46 18 -70 11 -206 -7 -161
-6 -174 19 -204 14 -16 13 -21 -6 -58 -25 -47 -28 -79 -8 -79 17 0 56 59 56
84 0 17 38 78 52 84 4 2 10 20 14 40 10 52 28 93 56 123 12 14 32 43 43 64 11
21 28 40 37 43 10 2 18 9 18 16 1 6 9 21 20 34 16 19 22 21 38 11 11 -7 30
-29 43 -51 13 -21 27 -38 30 -38 10 0 20 -30 13 -41 -3 -5 -13 -5 -25 1 -14 8
-19 7 -20 -2 -3 -28 3 -45 32 -85 16 -23 29 -48 29 -57 0 -18 -25 -22 -35 -6
-3 6 -15 10 -26 10 -10 0 -19 5 -19 10 0 6 -3 10 -7 10 -5 0 -9 -26 -11 -58
-2 -31 -8 -84 -14 -117 -13 -68 -15 -196 -3 -239 5 -20 4 -31 -6 -37 -11 -6
-15 -46 -17 -176 -1 -92 -7 -184 -12 -203 -6 -19 -15 -80 -20 -135 -9 -86 -13
-102 -34 -120 -14 -11 -50 -65 -81 -120 -31 -55 -63 -107 -70 -115 -7 -8 -28
-45 -46 -83 -17 -37 -36 -70 -40 -73 -5 -3 -9 -14 -9 -25 0 -11 -7 -19 -17
-19 -16 -1 -16 -2 1 -12 16 -9 23 -7 35 8 21 25 68 55 100 63 16 5 33 22 46
47 11 21 30 43 42 49 15 6 29 27 39 60 9 27 26 61 39 75 12 14 37 47 56 75 19
27 40 56 47 63 6 7 12 17 12 22 0 4 8 7 17 6 10 0 22 9 28 22 5 12 16 22 23
22 8 0 12 9 10 23 -2 15 4 25 19 32 12 5 24 19 25 30 3 16 5 15 9 -7 4 -19 3
-25 -5 -21 -6 4 -4 -2 5 -13 19 -22 31 -66 31 -111 0 -18 4 -33 10 -33 5 0 7
-7 4 -15 -3 -9 -2 -23 3 -33 5 -9 14 -48 21 -87 6 -38 14 -77 17 -85 3 -8 7
-20 9 -27 7 -36 37 -114 45 -118 5 -4 9 -15 9 -26 0 -11 6 -22 14 -25 8 -3 12
-12 10 -19 -3 -7 4 -19 15 -27 11 -8 26 -34 33 -58 10 -32 20 -46 41 -54 15
-6 27 -16 27 -24 0 -7 15 -19 33 -27 17 -7 46 -27 62 -43 17 -16 50 -37 75
-45 25 -9 78 -29 119 -46 41 -17 80 -31 87 -31 8 0 13 -6 11 -12 -1 -7 8 -14
21 -16 12 -2 22 -8 22 -13 0 -5 7 -9 15 -9 8 0 20 -9 27 -20 7 -11 18 -20 25
-20 7 0 17 -9 22 -19 9 -16 6 -22 -17 -36 -33 -22 -71 -65 -72 -83 0 -26 30
-70 53 -76 14 -3 37 -22 52 -42 27 -35 27 -37 27 -188 -1 -114 3 -159 13 -180
11 -21 12 -33 4 -48 -20 -37 -40 -133 -34 -164 3 -17 0 -45 -6 -63 -6 -17 -9
-34 -7 -37 25 -24 88 99 142 275 18 59 39 117 46 131 l12 23 13 -29 c21 -52
41 -64 96 -62 43 2 53 -1 70 -22 10 -14 19 -19 19 -12 0 8 8 6 22 -8 27 -25
45 -26 53 -1 3 11 15 23 26 26 11 4 25 18 31 31 6 14 16 23 22 21 20 -6 40
-61 44 -119 4 -48 2 -58 -16 -67 -26 -14 -44 -66 -36 -108 5 -29 2 -38 -28
-66 -24 -22 -37 -45 -41 -72 -4 -22 -15 -51 -25 -65 -10 -14 -24 -42 -31 -62
-7 -20 -23 -43 -36 -52 -13 -8 -26 -24 -30 -35 -3 -11 -30 -33 -59 -50 -47
-26 -136 -112 -136 -131 0 -4 -19 -15 -42 -25 -24 -9 -71 -36 -104 -60 -34
-24 -81 -51 -105 -60 -24 -9 -53 -21 -64 -25 -41 -17 -55 -19 -55 -9 0 7 -12
9 -29 7 -26 -4 -29 -2 -20 14 7 14 6 16 -6 12 -10 -4 -15 0 -15 15 0 12 -5 21
-11 21 -8 0 -8 4 0 14 7 8 13 25 14 39 1 13 21 46 44 72 23 27 40 52 38 55 -3
4 27 49 65 101 80 108 96 136 86 146 -14 14 -75 -30 -176 -128 -67 -64 -111
-99 -125 -99 -13 0 -28 -7 -35 -15 -7 -8 -19 -15 -26 -15 -8 0 -14 -5 -14 -10
0 -6 -8 -13 -17 -17 -22 -8 -87 -57 -129 -98 -128 -124 -246 -212 -308 -230
-33 -10 -49 -24 -62 -53 -1 -2 -33 -7 -70 -13 -105 -15 -116 -18 -111 -34 8
-19 -132 -28 -378 -22 -208 5 -305 19 -305 42 0 25 18 61 56 110 20 27 50 76
66 108 16 32 46 85 67 117 60 92 62 138 7 141 -17 1 -17 2 -3 6 21 5 23 23 2
23 -8 0 -15 9 -15 20 0 17 -7 20 -40 20 -22 0 -40 -4 -40 -10 0 -5 -15 -16
-33 -23 -17 -8 -49 -26 -70 -40 -21 -14 -51 -28 -66 -32 -16 -3 -32 -13 -35
-21 -3 -8 -12 -14 -21 -14 -8 0 -15 -7 -15 -15 0 -22 -48 -65 -73 -65 -28 -1
-57 -23 -57 -44 0 -9 -7 -16 -15 -16 -8 0 -15 -4 -15 -9 0 -5 -11 -12 -25 -15
-14 -4 -34 -15 -45 -26 -11 -11 -43 -32 -71 -47 -28 -16 -55 -36 -60 -45 -5
-10 -19 -18 -30 -18 -36 0 -89 -28 -89 -48 0 -10 -10 -29 -22 -42 -15 -16 -18
-25 -10 -28 17 -5 15 -22 -4 -22 -8 0 -22 -7 -30 -15 -14 -13 -14 -16 2 -22
15 -6 15 -7 -5 -14 -12 -5 -24 -17 -28 -26 -10 -26 -29 -43 -47 -43 -9 0 -16
-8 -16 -20 0 -11 -7 -20 -15 -20 -47 0 -90 -50 -58 -68 10 -6 -5 -11 -47 -15
-71 -8 -126 -31 -133 -56 -5 -20 -163 -79 -287 -107 -41 -9 -105 -30 -141 -45
-36 -16 -71 -29 -78 -29 -6 0 -29 -9 -50 -19 -21 -11 -61 -23 -89 -27 -68 -9
-99 10 -108 66 -4 22 -10 42 -13 45 -15 9 -33 -15 -36 -46 -2 -19 -3 -37 -4
-41 -1 -5 -17 -8 -36 -8 -24 0 -45 9 -70 31 -41 36 -44 63 -15 128 11 24 19
46 17 48 -8 7 -59 -41 -67 -63 -12 -32 -28 -30 -36 3 -13 50 25 98 167 208 35
28 105 91 154 141 73 73 101 110 148 197 31 58 58 116 60 128 5 45 -22 27 -73
-51 -29 -44 -58 -80 -64 -80 -6 0 -22 -9 -36 -20 -19 -15 -40 -19 -90 -19
-115 0 -383 34 -417 52 -18 9 -42 17 -53 17 -12 0 -30 5 -42 11 -14 8 -28 7
-50 -2 -25 -10 -32 -10 -38 2 -27 46 -38 54 -59 42 -17 -11 -22 -10 -31 7 -6
11 -24 27 -40 35 -16 8 -41 35 -55 60 -15 24 -40 51 -57 60 -38 18 -38 18 -38
0 0 -8 -8 -15 -18 -15 -12 0 -29 18 -47 53 -16 28 -45 73 -66 98 -31 37 -44
45 -62 42 -21 -4 -27 2 -41 38 -10 24 -32 57 -49 74 -20 20 -39 53 -50 90 -25
83 -75 199 -102 239 -13 19 -26 49 -30 67 -4 19 -13 44 -21 56 -7 12 -16 41
-20 65 -3 24 -13 48 -22 55 -10 8 -17 40 -22 90 -4 43 -13 91 -19 106 -6 16
-11 89 -11 171 0 116 3 148 18 176 20 40 18 70 -5 70 -8 0 -13 6 -10 13 2 6
-4 21 -14 33 -11 11 -29 47 -40 79 -11 33 -31 71 -44 87 -13 15 -28 49 -34 75
-6 26 -23 89 -37 138 -45 162 -46 168 -39 255 8 117 6 151 -10 177 -23 35 -18
93 14 158 19 38 26 64 20 70 -17 17 -10 50 21 98 16 26 30 53 30 59 0 23 43
78 78 100 59 36 102 84 102 113 0 15 -12 61 -26 103 -42 126 -67 283 -60 387
6 101 19 186 35 237 62 188 156 409 184 433 24 20 45 72 97 235 54 168 110
324 175 485 39 97 169 323 222 385 39 45 43 64 11 54 -23 -6 -39 -17 -93 -66
-16 -16 -35 -28 -41 -28 -15 0 -38 131 -30 166 4 16 9 45 12 64 3 19 11 73 19
120 12 76 12 236 0 248 -2 3 1 14 7 25 6 12 13 48 15 82 7 109 10 130 22 160
7 17 17 53 22 80 5 28 17 56 26 63 23 17 94 15 120 -3z m4434 -2716 c30 -6 92
-14 139 -19 47 -4 110 -15 140 -24 30 -10 94 -26 142 -36 93 -20 152 -46 208
-90 19 -15 51 -34 70 -43 19 -8 57 -36 85 -62 56 -53 80 -65 117 -58 20 4 30
-2 45 -24 24 -33 113 -215 113 -230 0 -6 7 -24 15 -39 8 -16 15 -41 15 -56 0
-15 4 -29 9 -32 4 -3 14 -26 21 -50 8 -29 20 -48 31 -51 42 -14 60 -66 105
-295 22 -112 25 -151 20 -225 -3 -49 -10 -91 -16 -93 -5 -2 -6 -10 -3 -19 3
-8 2 -18 -3 -22 -14 -9 -34 -80 -24 -86 14 -8 100 91 100 116 0 23 15 32 41
24 17 -6 20 -13 16 -43 -12 -102 -76 -261 -127 -317 -10 -11 -22 -32 -25 -47
-4 -16 -12 -28 -19 -28 -17 0 -72 -47 -64 -56 9 -8 83 23 99 43 12 14 89 19
89 5 0 -4 -26 -33 -57 -63 -51 -49 -152 -109 -182 -109 -6 0 -11 -4 -11 -10 0
-12 78 -12 139 -1 25 5 51 7 58 4 22 -9 -11 -38 -60 -53 -23 -7 -61 -19 -85
-28 -39 -14 -48 -13 -102 3 -33 10 -63 16 -66 13 -8 -9 46 -43 101 -63 28 -10
59 -24 70 -31 11 -6 36 -17 56 -23 20 -7 44 -20 54 -31 25 -27 4 -50 -44 -50
-20 0 -49 -7 -65 -15 -16 -9 -64 -21 -105 -27 -42 -6 -80 -14 -85 -18 -4 -5 4
-44 18 -87 26 -79 34 -147 17 -158 -6 -3 -28 20 -49 52 -22 32 -52 69 -66 82
-14 14 -26 29 -26 33 0 5 -11 24 -25 42 -14 18 -25 38 -25 44 0 7 -4 12 -9 12
-5 0 -12 11 -15 25 -4 14 -22 35 -40 47 -25 17 -39 37 -52 76 -20 58 -13 73
30 65 41 -8 56 32 32 87 -4 9 1 24 12 35 19 20 19 21 0 58 -10 20 -16 37 -13
37 3 0 -7 19 -21 42 -24 37 -25 45 -15 77 25 77 29 212 7 246 -7 11 -14 54
-15 95 -1 41 -5 79 -9 85 -4 5 -7 17 -9 25 -1 7 -12 22 -24 31 -15 11 -22 27
-22 50 0 19 -6 43 -13 54 -8 11 -14 33 -14 50 0 16 -9 50 -20 74 -11 24 -20
51 -20 61 0 10 -7 23 -15 30 -8 7 -15 20 -15 30 0 9 -9 25 -20 35 -11 10 -20
22 -20 27 0 29 -37 43 -119 48 -105 6 -125 -7 -135 -85 -4 -28 -11 -77 -15
-109 -9 -69 -5 -167 10 -212 5 -18 7 -44 3 -59 -4 -15 -3 -30 2 -34 17 -12 48
-106 48 -145 0 -31 -6 -44 -31 -65 -17 -14 -42 -27 -55 -28 -12 -1 -44 -5 -70
-8 -29 -5 -66 -3 -95 5 -26 7 -83 12 -126 11 -113 -3 -255 43 -319 104 -15 14
-31 25 -35 25 -5 0 -16 8 -25 18 -9 9 -23 22 -30 27 -7 6 -31 24 -53 41 -43
33 -126 61 -145 49 -12 -8 -10 -66 6 -145 l7 -35 -31 33 c-16 18 -35 52 -40
75 -6 23 -11 145 -11 271 0 126 -4 233 -9 238 -8 8 -17 -14 -42 -109 -12 -48
-21 -52 -50 -23 -23 23 -26 68 -9 135 10 39 9 47 -8 68 l-19 25 -24 -52 c-20
-43 -23 -64 -21 -133 1 -54 -1 -83 -8 -83 -6 0 -11 12 -11 26 0 14 -5 35 -11
47 -9 16 -9 22 0 25 9 3 9 7 1 18 -7 7 -8 19 -4 26 5 7 10 33 11 58 6 85 46
180 76 180 9 0 5 -28 -9 -64 -11 -29 20 -17 42 17 88 136 95 152 79 191 -6 14
7 32 64 86 69 65 91 100 54 85 -39 -16 -53 -17 -53 -4 0 19 80 91 141 126 29
17 73 50 97 72 36 33 64 47 162 78 101 32 117 40 110 54 -6 10 -5 20 2 27 15
15 128 15 199 1z m-396 -1677 c-3 -3 -11 0 -18 7 -9 10 -8 11 6 5 10 -3 15 -9
12 -12z m1130 -662 c4 -16 11 -32 16 -36 14 -8 74 -131 94 -193 19 -60 17
-200 -4 -255 -15 -38 -22 -29 -26 37 -5 88 -55 296 -87 366 -19 41 -27 73 -23
88 8 32 22 29 30 -7z m-36 -167 c17 -34 34 -174 28 -239 -7 -67 -36 -141 -69
-171 -17 -15 -18 -14 -18 18 0 19 4 39 9 44 20 20 32 150 25 258 -5 75 -3 107
4 107 6 0 15 -8 21 -17z m262 -166 c-15 -15 -22 -4 -28 45 l-5 43 22 -39 c15
-27 18 -42 11 -49z m-346 36 c-16 -106 -29 -167 -41 -200 -18 -52 -18 -14 0
80 8 40 17 89 21 110 3 20 10 37 15 37 5 0 8 -12 5 -27z m-111 -205 c-8 -28
-16 -53 -19 -56 -10 -10 -5 48 7 88 18 56 27 29 12 -32z m-5556 -342 c-4 -21
-1 -23 25 -22 26 1 32 -4 38 -29 22 -80 136 -244 182 -260 9 -4 15 -10 12 -15
-3 -5 4 -14 15 -20 11 -6 20 -17 20 -26 0 -8 7 -17 15 -20 17 -7 45 -59 45
-86 0 -12 -13 -24 -36 -34 -27 -11 -35 -20 -31 -33 2 -11 2 -23 -2 -29 -6 -9
-129 -62 -146 -62 -4 0 -23 -16 -40 -36 -37 -42 -78 -53 -193 -54 -44 0 -84
-6 -101 -15 -16 -8 -106 -23 -200 -34 -94 -11 -176 -23 -181 -26 -6 -4 -24 8
-41 26 -25 27 -30 39 -26 66 5 31 5 32 -16 21 -12 -6 -28 -19 -35 -30 -7 -10
-23 -18 -34 -18 -30 0 -68 38 -69 69 -1 18 -3 21 -6 8 -3 -12 -12 -17 -26 -15
-17 2 -23 11 -25 36 -5 46 25 120 52 128 11 3 49 24 83 45 34 22 67 39 73 39
6 0 8 4 5 10 -4 6 1 7 11 3 13 -5 15 -3 9 7 -5 9 -4 11 3 6 13 -8 233 140 357
240 44 35 99 73 122 85 23 12 63 39 89 61 25 21 48 38 51 38 3 0 3 -11 1 -24z"/>
<path d="M4446 6824 c-67 -74 -126 -154 -126 -171 0 -15 -2 -16 -10 -3 -8 13
-14 10 -35 -15 -43 -50 -56 -84 -53 -128 2 -34 7 -41 21 -39 9 2 17 -1 17 -6
0 -12 -25 -22 -56 -22 -15 0 -24 -6 -24 -15 0 -17 43 -65 58 -65 4 0 24 17 44
38 25 25 47 67 71 132 20 52 58 146 86 209 28 63 49 116 47 119 -3 2 -21 -13
-40 -34z"/>
<path d="M4588 6363 c-28 -14 -38 -33 -18 -33 20 0 9 -38 -16 -55 -20 -13 -24
-22 -20 -40 7 -28 -3 -85 -16 -85 -10 0 -70 -41 -80 -55 -4 -5 -8 -23 -8 -40
0 -16 -1 -41 -1 -55 -2 -30 80 -202 99 -208 7 -2 12 6 12 22 0 16 11 36 31 53
17 16 36 41 43 58 7 16 39 56 70 88 31 33 56 65 56 72 0 12 29 37 113 97 27
20 26 86 -2 131 l-23 37 -93 0 c-73 0 -94 3 -99 15 -6 18 -12 18 -48 -2z"/>
<path d="M1716 6033 c-81 -41 -154 -130 -181 -220 -11 -40 21 -27 67 27 71 83
87 65 38 -43 -58 -128 -73 -208 -66 -339 3 -67 2 -119 -3 -123 -24 -14 -81 95
-81 154 0 20 -3 60 -7 90 l-6 55 -13 -45 c-23 -75 -10 -143 53 -275 36 -77 73
-111 152 -139 58 -20 103 -19 180 5 109 33 188 130 215 266 38 195 29 339 -29
453 -44 85 -75 115 -152 140 -77 26 -105 25 -167 -6z m88 -146 c14 -10 15 -18
7 -40 -9 -24 -16 -27 -55 -27 -51 0 -62 10 -45 42 21 40 59 50 93 25z"/>
<path d="M3095 5875 c-49 -13 -93 -24 -96 -25 -9 0 -223 -237 -281 -310 -63
-80 -145 -194 -162 -229 -29 -54 -21 -93 35 -176 56 -82 81 -105 115 -105 12
0 45 -14 75 -30 152 -86 230 -104 383 -91 98 8 110 12 206 62 83 42 119 68
190 138 113 111 125 133 125 241 0 82 -2 88 -50 183 -81 160 -191 274 -318
332 -79 36 -120 38 -222 10z m72 -145 c3 -11 21 -29 39 -41 35 -21 44 -51 22
-66 -21 -13 -152 -21 -171 -11 -38 20 -127 -102 -156 -212 -35 -134 -36 -165
-12 -271 12 -55 20 -104 16 -107 -8 -8 -133 116 -151 150 -8 15 -17 61 -21
102 -6 75 -6 76 41 170 76 152 210 280 310 297 69 11 78 10 83 -11z"/>
<path d="M4825 5570 c-3 -5 -2 -10 4 -10 5 0 13 5 16 10 3 6 2 10 -4 10 -5 0
-13 -4 -16 -10z"/>
<path d="M1946 5037 c4 -10 -4 -21 -23 -31 l-28 -15 52 -1 c28 0 55 5 58 10 6
10 45 14 45 4 0 -3 -6 -12 -14 -20 -8 -7 -16 -19 -18 -26 -3 -9 -25 -8 -91 6
-48 10 -84 22 -81 27 10 17 -51 9 -83 -11 -58 -35 -54 -143 9 -264 l30 -58
-21 -38 c-11 -21 -21 -45 -21 -54 0 -23 -28 -32 -52 -17 -17 11 -18 10 -9 -8
6 -11 16 -23 21 -26 5 -3 25 -38 43 -78 59 -126 122 -158 317 -160 93 -1 114
2 180 27 41 15 111 36 155 46 103 22 106 24 133 63 49 72 23 86 -101 53 -51
-14 -118 -24 -150 -24 -56 1 -58 2 -98 49 -26 32 -41 60 -44 86 -3 21 -7 54
-11 75 -5 31 -1 41 29 75 54 60 59 76 48 140 -13 68 -18 75 -106 131 -54 35
-82 46 -123 50 -44 4 -51 2 -46 -11z"/>
<path d="M6000 2744 c0 -8 5 -12 10 -9 6 3 10 10 10 16 0 5 -4 9 -10 9 -5 0
-10 -7 -10 -16z"/>
<path d="M5898 2601 c-7 -2 -22 -13 -34 -25 -19 -19 -19 -22 -5 -34 14 -11 13
-12 -9 -10 -14 2 -26 -1 -28 -7 -1 -5 20 -11 48 -13 45 -3 50 -1 50 17 0 15 6
21 21 21 11 0 18 4 14 9 -3 5 -1 12 5 16 5 3 10 12 10 19 0 12 -41 16 -72 7z"/>
<path d="M5725 2520 c-4 -6 7 -10 27 -10 25 0 29 3 18 10 -19 13 -37 13 -45 0z"/>
<path d="M5642 2485 c-29 -13 -25 -45 8 -62 14 -6 49 -23 78 -37 58 -29 64
-27 27 10 -18 18 -25 36 -25 64 0 38 -1 39 -32 38 -18 -1 -43 -7 -56 -13z"/>
<path d="M5511 2326 c2 -2 18 -6 34 -10 22 -5 26 -4 15 4 -14 9 -59 15 -49 6z"/>
<path d="M4708 1763 c6 -2 12 -12 12 -21 0 -12 3 -13 11 -5 14 14 3 33 -19 32
-11 0 -12 -3 -4 -6z"/>
<path d="M4673 1730 c-10 -14 -9 -19 2 -24 20 -7 39 19 22 32 -10 8 -16 6 -24
-8z"/>
<path d="M4610 1695 c-11 -13 -8 -15 18 -15 17 0 32 -6 35 -12 3 -9 7 -7 12 5
9 21 8 22 -26 30 -18 5 -31 2 -39 -8z"/>
<path d="M4545 1670 c3 -5 8 -10 11 -10 2 0 4 5 4 10 0 6 -5 10 -11 10 -5 0
-7 -4 -4 -10z"/>
<path d="M4480 1616 c0 -4 7 -14 15 -22 8 -9 15 -11 15 -6 0 5 -7 15 -15 22
-8 7 -15 9 -15 6z"/>
<path d="M2840 1478 c-12 -22 -12 -22 6 -6 10 10 15 20 12 24 -4 3 -12 -5 -18
-18z"/>
<path d="M3580 949 c0 -5 5 -7 10 -4 6 3 10 8 10 11 0 2 -4 4 -10 4 -5 0 -10
-5 -10 -11z"/>
</g>
</svg>
