<?xml version="1.0" standalone="no"?>
<!DOCTYPE svg PUBLIC "-//W3C//DTD SVG 20010904//EN"
 "http://www.w3.org/TR/2001/REC-SVG-20010904/DTD/svg10.dtd">
<svg version="1.0" xmlns="http://www.w3.org/2000/svg"
 width="250.000000pt" height="250.000000pt" viewBox="0 0 250.000000 250.000000"
 preserveAspectRatio="xMidYMid meet">
<metadata>
Created by potrace 1.11, written by Peter Selinger 2001-2013
</metadata>
<g transform="translate(0.000000,250.000000) scale(0.100000,-0.100000)"
fill="#000000" stroke="none">
<path d="M1080 2485 c-163 -28 -267 -62 -404 -133 -308 -159 -548 -460 -631
-792 -46 -182 -55 -328 -30 -485 77 -475 383 -851 823 -1009 244 -87 563 -90
814 -6 187 63 336 156 484 304 199 199 320 438 355 703 18 138 7 366 -24 485
-90 343 -329 645 -633 800 -107 54 -177 82 -264 103 -177 45 -344 55 -490 30z
m66 -199 c8 -20 -24 -84 -49 -97 -18 -10 -14 -14 42 -41 33 -16 61 -33 61 -39
0 -5 -30 -9 -66 -9 -88 0 -134 26 -134 74 0 40 29 80 78 106 45 23 61 25 68 6z
m302 -18 c40 -24 52 -46 52 -92 0 -52 -42 -76 -134 -76 -58 0 -67 2 -57 14 7
8 36 25 66 37 l54 22 -23 18 c-28 22 -51 73 -42 95 7 18 33 13 84 -18z m-488
-62 c0 -29 -7 -52 -21 -70 -12 -15 -20 -28 -18 -30 2 -1 31 -7 63 -14 109 -22
100 -53 -16 -59 -48 -3 -81 0 -98 9 -33 18 -48 74 -29 113 14 28 91 95 110 95
5 0 9 -20 9 -44z m651 9 c48 -38 57 -54 58 -106 2 -63 -16 -74 -112 -74 -57 0
-89 4 -101 14 -24 20 -11 28 65 42 l66 13 -24 34 c-26 39 -32 112 -9 112 7 0
33 -16 57 -35z m-806 -45 c9 -28 -10 -86 -40 -126 l-26 -34 38 0 c47 -1 139
-31 135 -45 -8 -30 -149 -46 -211 -24 -50 18 -67 89 -36 150 16 30 100 98 122
99 6 0 14 -9 18 -20z m943 6 c40 -21 99 -87 106 -119 4 -16 4 -44 0 -64 -5
-28 -14 -38 -43 -50 -45 -19 -163 -13 -206 10 l-30 16 40 16 c22 10 66 20 98
23 l58 5 -25 26 c-38 40 -61 123 -39 144 9 9 10 9 41 -7z m-1134 -98 c3 -13 6
-41 6 -63 0 -37 -5 -49 -37 -102 -11 -19 -9 -19 67 -15 80 5 130 -2 130 -16 0
-5 -28 -22 -61 -38 -50 -23 -75 -29 -131 -29 -78 0 -90 9 -108 75 -14 54 3 97
62 157 29 29 55 53 59 53 4 0 9 -10 13 -22z m1355 -33 c59 -65 71 -105 49
-174 -14 -45 -15 -46 -67 -55 -64 -11 -124 2 -190 41 -44 26 -44 26 -20 35 13
5 61 8 107 6 45 -2 82 -2 82 -1 0 2 -9 17 -20 35 -27 45 -27 168 0 168 4 0 31
-25 59 -55z m-1523 -212 c4 -21 2 -54 -3 -75 -6 -21 -8 -38 -6 -38 2 0 18 7
36 17 32 16 121 43 145 43 20 0 14 -17 -19 -55 -42 -47 -105 -84 -160 -91 -42
-6 -47 -4 -77 30 -17 19 -34 50 -37 68 -7 38 16 118 48 162 l20 29 23 -27 c13
-14 26 -43 30 -63z m1704 25 c42 -88 38 -152 -12 -205 -36 -39 -107 -26 -189
33 -47 34 -85 81 -75 91 9 9 109 -16 152 -37 21 -11 39 -20 40 -20 1 0 0 26
-3 58 -4 47 -1 66 16 100 12 23 26 42 32 42 5 0 23 -28 39 -62z m-869 23 c8
-11 19 -16 32 -13 18 5 18 4 2 -28 -18 -35 -20 -34 30 -14 10 4 15 0 15 -14 0
-11 7 -22 15 -26 8 -3 15 -12 15 -21 0 -9 -7 -18 -15 -21 -8 -4 -15 -17 -15
-31 0 -23 -1 -23 -22 -9 -33 23 -43 19 -24 -9 21 -31 20 -35 -4 -35 -15 0 -20
-7 -20 -25 0 -30 -3 -30 51 -5 25 11 66 20 94 20 49 0 126 -27 139 -49 4 -6
16 -11 26 -11 39 0 129 -42 173 -81 118 -103 137 -288 45 -434 -27 -44 -32
-61 -36 -138 l-4 -87 -522 2 -521 3 -3 83 c-2 71 -7 90 -31 130 -82 134 -80
285 6 406 35 49 117 102 173 112 19 3 62 19 94 35 71 35 140 38 204 9 37 -17
44 -17 48 -5 9 23 -3 45 -21 39 -19 -8 -19 6 0 32 21 28 18 37 -7 20 -29 -21
-49 -21 -41 0 3 9 -3 21 -16 31 l-22 15 21 23 c12 13 19 28 15 34 -9 16 17 13
43 -5 25 -17 28 -8 7 20 -20 26 -19 40 1 32 11 -4 22 1 31 14 18 25 29 25 44
1z m-1013 -207 c32 -22 62 -87 62 -132 0 -50 8 -57 31 -28 23 30 156 100 164
87 16 -27 -66 -139 -134 -183 -58 -37 -79 -35 -129 7 -52 45 -64 85 -51 168
17 105 19 108 57 81z m2013 -5 c6 -12 13 -56 16 -98 5 -68 3 -79 -18 -110 -13
-18 -41 -43 -62 -55 l-37 -21 -57 31 c-45 24 -67 45 -100 94 -38 56 -54 100
-38 100 19 0 126 -64 152 -90 l30 -31 7 52 c8 60 18 83 54 122 31 33 38 33 53
6z m-2083 -253 c51 -27 102 -94 102 -135 0 -30 16 -26 29 7 7 16 37 53 67 83
45 44 56 51 64 39 35 -54 -83 -250 -150 -250 -45 1 -107 36 -126 72 -17 33
-34 198 -20 198 4 0 19 -6 34 -14z m1931 -61 c17 -19 38 -50 47 -68 l17 -32 9
25 c32 84 84 140 132 140 18 0 18 -6 12 -77 -9 -113 -50 -169 -133 -180 -36
-5 -45 -1 -81 31 -46 42 -80 115 -89 188 l-6 52 30 -22 c17 -12 45 -38 62 -57z
m-1679 -228 c0 -87 -2 -95 -33 -142 -31 -48 -34 -50 -82 -53 -40 -2 -58 2 -85
20 -39 26 -89 107 -97 155 -5 31 -4 33 26 33 46 0 109 -36 133 -76 24 -41 38
-44 38 -8 0 24 48 132 72 161 20 25 28 0 28 -90z m1670 32 c17 -33 35 -81 39
-107 l8 -47 12 30 c7 16 20 38 29 49 26 28 87 56 123 56 29 0 31 -2 24 -27
-14 -57 -61 -136 -95 -159 -26 -18 -48 -24 -87 -24 -51 0 -53 1 -79 45 -14 25
-30 45 -34 45 -4 0 -1 -26 7 -57 8 -31 13 -79 11 -105 -2 -26 -1 -48 0 -48 2
0 22 15 43 34 57 48 169 62 169 21 0 -8 -25 -41 -56 -74 -66 -71 -101 -85
-172 -68 -44 11 -48 15 -64 62 -19 57 -16 119 12 199 11 32 23 51 32 50 13 -1
14 11 10 67 -9 132 17 154 68 58z m-1620 -185 c22 -73 25 -139 7 -198 -11 -36
-17 -41 -60 -52 -81 -21 -131 3 -199 92 -34 45 -39 57 -27 65 36 22 125 1 174
-43 l35 -30 0 57 c0 48 10 111 26 163 8 28 24 8 44 -54z m111 -186 c24 -47 29
-70 29 -127 l0 -69 -37 -23 -38 -23 50 -6 c28 -3 60 -11 72 -18 36 -20 41 -14
21 28 -13 26 -21 68 -25 122 l-4 83 41 -45 c23 -25 51 -62 61 -82 24 -46 35
-138 21 -165 -11 -19 -8 -21 36 -26 26 -2 56 -8 67 -13 15 -6 11 3 -17 42 -19
27 -45 79 -56 117 -18 61 -19 67 -3 67 25 0 127 -109 150 -160 31 -68 28 -102
-13 -138 -54 -47 -93 -56 -167 -37 -82 21 -119 41 -119 63 0 13 -13 21 -46 30
-39 10 -78 33 -149 85 -6 5 -2 14 12 26 l22 19 -42 16 c-23 9 -64 36 -92 61
-48 43 -49 45 -31 60 29 22 118 19 168 -6 l41 -21 -8 24 c-4 12 -9 66 -12 118
l-5 95 22 -20 c12 -11 35 -46 51 -77z m1354 -23 c-4 -38 -11 -78 -17 -88 -15
-28 -4 -30 41 -8 62 32 171 26 171 -8 0 -21 -62 -72 -123 -102 -40 -19 -44
-24 -30 -34 9 -7 14 -19 10 -28 -8 -22 -82 -68 -142 -88 -35 -13 -50 -23 -50
-36 0 -14 -20 -25 -85 -46 -74 -25 -89 -27 -123 -17 -21 6 -56 27 -78 47 -46
41 -46 59 -3 150 35 73 154 177 154 134 0 -32 -44 -140 -70 -173 -36 -44 -35
-53 4 -38 15 5 40 10 56 10 26 0 29 2 21 23 -13 34 5 133 32 180 14 23 42 60
62 82 l36 40 -6 -84 c-3 -49 -14 -103 -25 -128 -10 -24 -17 -43 -16 -43 2 0
20 7 39 15 20 8 52 15 72 15 42 0 45 11 8 31 -39 20 -43 27 -43 89 0 57 27
130 72 192 l21 31 10 -24 c5 -13 6 -55 2 -94z m-816 -288 c18 -17 44 -53 58
-80 24 -49 24 -51 8 -88 -22 -47 -49 -73 -98 -94 -32 -13 -51 -14 -113 -5 -95
13 -118 24 -104 50 29 55 125 96 198 85 l47 -7 -56 59 c-51 53 -109 145 -109
173 0 16 132 -56 169 -93z m344 22 c-21 -39 -57 -89 -80 -110 -24 -22 -43 -41
-43 -44 0 -3 20 -2 44 1 25 4 60 1 81 -6 41 -14 115 -75 115 -95 0 -17 -88
-38 -161 -39 -47 -1 -62 4 -93 27 -20 16 -48 46 -62 67 l-26 39 35 63 c41 73
51 83 132 132 94 56 104 50 58 -35z"/>
<path d="M1037 1576 c-88 -32 -140 -120 -141 -236 -1 -87 19 -150 73 -231 35
-53 37 -54 88 -57 l51 -3 -14 47 c-18 60 -18 223 0 289 15 59 41 112 68 142
20 21 20 21 -4 36 -36 23 -79 28 -121 13z"/>
<path d="M1365 1568 c-11 -6 -21 -12 -23 -14 -2 -1 10 -21 27 -45 17 -23 38
-65 47 -93 29 -98 29 -271 -1 -348 -6 -16 -1 -18 44 -18 l51 0 40 61 c51 79
73 148 73 229 0 97 -48 191 -113 225 -34 18 -116 19 -145 3z"/>
<path d="M825 1491 c-118 -71 -149 -233 -73 -373 l35 -63 66 -3 67 -3 -35 68
c-49 94 -69 196 -54 276 6 34 15 70 20 80 17 30 6 38 -26 18z"/>
<path d="M1664 1484 c21 -53 28 -114 23 -185 -5 -78 -10 -91 -85 -241 -2 -5
23 -8 56 -8 55 0 63 3 80 28 83 117 92 236 26 338 -36 55 -116 110 -100 68z"/>
<path d="M1185 1437 c-36 -75 -50 -172 -36 -263 13 -88 28 -124 53 -124 16 0
18 9 18 73 0 39 3 136 6 213 7 162 -1 182 -41 101z"/>
<path d="M1290 1273 l0 -223 25 0 c35 0 50 59 50 195 0 122 -13 181 -50 222
l-24 28 -1 -222z"/>
</g>
</svg>
