<?xml version="1.0" standalone="no"?>
<!DOCTYPE svg PUBLIC "-//W3C//DTD SVG 20010904//EN"
 "http://www.w3.org/TR/2001/REC-SVG-20010904/DTD/svg10.dtd">
<svg version="1.0" xmlns="http://www.w3.org/2000/svg"
 width="345.000000pt" height="345.000000pt" viewBox="0 0 345.000000 345.000000"
 preserveAspectRatio="xMidYMid meet">
<metadata>
Created by potrace 1.11, written by Peter Selinger 2001-2013
</metadata>
<g transform="translate(0.000000,345.000000) scale(0.100000,-0.100000)"
fill="#000000" stroke="none">
<path d="M1571 3319 c-41 -10 -77 -22 -80 -25 -3 -4 5 -4 19 0 14 3 89 12 167
18 140 12 144 11 173 -10 16 -12 35 -22 42 -22 7 0 20 -5 28 -10 10 -7 -7 -9
-58 -7 -49 3 -77 8 -84 18 -7 11 -11 11 -15 1 -4 -10 -8 -10 -19 -1 -11 9 -26
9 -67 0 -29 -7 -77 -14 -107 -16 -55 -3 -144 -18 -187 -31 -48 -14 -20 4 38
25 33 13 59 24 57 25 -2 2 -17 6 -34 9 -25 5 -43 -1 -85 -29 -45 -29 -49 -34
-29 -34 47 -1 -8 -22 -65 -25 -52 -3 -138 -46 -303 -151 -30 -19 -56 -33 -59
-31 -2 3 12 15 32 27 20 12 34 25 31 28 -14 13 -271 -205 -292 -248 -9 -19
-38 -60 -64 -90 -47 -55 -135 -185 -184 -272 -14 -26 -32 -53 -40 -60 -12 -13
-90 -238 -117 -338 -10 -38 -13 -42 -20 -25 -6 13 -7 0 -4 -38 3 -38 2 -56 -5
-52 -7 4 -10 -41 -10 -132 1 -418 128 -722 432 -1027 102 -103 128 -135 128
-157 0 -50 44 -129 72 -129 11 0 2 73 -12 100 -6 12 -9 24 -7 27 14 14 46 -29
82 -108 23 -51 47 -92 58 -95 9 -3 17 -9 17 -13 0 -12 80 -101 91 -101 5 0
-14 30 -43 68 l-52 67 55 -51 c51 -49 105 -84 129 -84 6 0 9 4 5 10 -13 21 67
2 93 -23 24 -23 89 -57 108 -57 4 0 1 7 -6 15 -10 12 -9 15 6 15 11 1 -7 12
-40 25 -58 25 -90 44 -83 52 3 2 20 -5 38 -16 19 -11 52 -23 74 -27 22 -3 47
-10 55 -14 8 -4 26 -1 40 6 l24 13 -29 12 c-17 6 -41 15 -55 20 -26 9 67 3
123 -7 16 -3 27 -1 27 5 0 6 -9 11 -21 11 -11 0 -17 4 -14 10 3 5 0 7 -8 4
-11 -4 -13 1 -10 20 8 39 -32 69 -133 101 -109 34 -108 34 -93 51 8 10 8 14 0
14 -24 0 -9 18 19 24 53 10 35 29 -37 39 -24 3 -44 17 -25 17 21 0 13 15 -15
32 -37 21 -149 34 -168 18 -18 -15 -91 4 -104 28 -14 25 -23 9 -12 -21 5 -14
19 -28 30 -32 10 -3 28 -25 39 -49 12 -24 42 -62 68 -85 26 -22 41 -41 34 -41
-17 0 -170 159 -170 176 0 7 -13 23 -28 36 -36 30 -31 49 11 41 18 -3 36 -10
42 -14 5 -5 20 -9 35 -8 l25 1 -27 8 c-15 4 -37 15 -50 24 l-22 16 23 0 c14 0
22 3 18 6 -5 5 -136 54 -144 54 -1 0 0 -7 4 -16 9 -24 -24 -4 -63 38 -130 141
-268 505 -265 701 0 26 -4 47 -9 47 -6 0 -9 -3 -9 -7 1 -5 0 -15 -1 -23 -9
-50 -16 112 -9 193 9 105 16 128 30 106 6 -10 9 -4 9 18 0 56 76 269 104 293
9 7 16 21 16 31 0 11 10 29 22 41 12 12 23 28 24 34 4 24 116 162 164 203 58
49 67 74 13 35 l-38 -27 43 42 c24 24 47 39 54 35 6 -4 8 -3 5 3 -7 11 21 39
65 66 34 21 49 22 22 2 -11 -9 -14 -14 -6 -15 20 0 133 80 127 90 -9 14 55 43
98 46 21 1 46 9 55 18 10 8 45 22 77 30 33 8 85 22 115 30 36 11 114 18 225
21 198 5 339 -11 480 -55 50 -15 109 -33 133 -39 23 -7 42 -16 42 -20 0 -5 24
-24 53 -42 141 -90 236 -171 324 -277 196 -236 288 -640 219 -967 -5 -23 -4
-26 3 -10 17 35 13 -6 -9 -89 -20 -81 -45 -138 -35 -81 3 17 -5 1 -18 -35 -13
-36 -38 -94 -56 -129 -18 -34 -30 -65 -27 -68 2 -3 17 18 31 47 14 29 29 50
31 47 6 -6 -37 -93 -60 -122 l-16 -20 6 20 c5 19 5 19 -13 -1 -21 -23 -62 -48
-69 -41 -4 4 39 119 56 149 6 10 10 28 10 41 0 30 -19 87 -30 87 -4 0 -24 -42
-45 -92 -56 -137 -93 -218 -101 -218 -3 0 -4 9 -1 20 4 17 2 17 -29 -6 -37
-29 -44 -40 -17 -29 10 3 0 -10 -22 -29 -22 -19 -44 -35 -50 -35 -5 0 4 11 20
24 17 14 27 25 23 25 -8 0 -65 -31 -103 -56 -22 -15 -23 -14 -18 6 4 14 25 30
61 46 62 27 122 69 122 85 0 7 -19 9 -50 6 -58 -5 -60 0 -31 65 52 116 78 220
61 248 -10 16 -30 4 -30 -18 -1 -38 -52 -137 -130 -254 -89 -132 -209 -298
-216 -298 -3 0 5 19 17 42 26 51 3 37 -32 -18 -11 -19 -24 -32 -28 -30 -4 3
-17 -16 -30 -41 -12 -25 -25 -43 -28 -39 -3 3 -19 -15 -34 -40 -16 -24 -35
-46 -41 -49 -7 -2 -47 -14 -88 -26 -84 -25 -133 -53 -151 -86 -16 -30 -5 -56
21 -48 11 3 20 3 20 -2 0 -11 -67 -53 -85 -53 -8 0 -15 -4 -15 -10 0 -5 -11
-10 -24 -10 -25 0 -56 -32 -56 -57 0 -19 54 -73 74 -73 9 0 16 -4 16 -9 0 -23
105 -36 134 -17 26 16 106 31 106 19 0 -4 -7 -17 -15 -27 -20 -26 -19 -31 9
-61 24 -26 24 -26 83 -11 32 8 92 19 133 25 275 39 317 43 429 37 83 -4 109
-3 92 5 -71 29 -324 20 -564 -22 -61 -10 -122 -19 -135 -19 -29 0 -37 22 -21
58 12 27 18 30 83 37 76 8 101 11 156 20 68 12 85 14 123 14 27 1 37 5 37 17
0 8 5 12 10 9 16 -10 12 11 -5 25 -8 6 -23 9 -36 5 -12 -4 -19 -3 -16 2 3 5
32 15 64 22 32 7 70 16 86 21 16 5 42 4 64 -2 53 -14 221 14 191 33 -8 5 -4
11 15 20 43 20 31 29 -18 15 -25 -8 -45 -10 -45 -5 0 5 8 12 18 15 65 20 172
99 172 127 0 6 -16 -4 -35 -23 -19 -18 -37 -31 -40 -28 -3 3 11 19 32 36 21
16 47 47 57 69 11 21 28 47 37 58 10 12 16 32 15 48 -2 17 6 42 20 63 13 19
24 37 24 40 0 3 -28 -20 -62 -51 -65 -58 -98 -82 -98 -68 0 4 15 18 34 31 51
35 158 150 151 162 -4 6 1 20 11 31 9 10 13 19 8 19 -5 0 -31 -24 -57 -52
l-48 -53 34 55 c137 222 234 474 241 625 3 44 9 125 16 180 12 108 6 248 -16
389 -14 90 -48 210 -66 233 -6 7 -11 30 -11 52 -1 21 -5 37 -8 35 -10 -6 -34
26 -59 76 -22 43 -103 170 -164 256 -28 38 -28 38 13 -6 23 -25 60 -73 83
-108 22 -34 43 -60 46 -57 13 12 -177 255 -199 255 -6 0 -25 15 -42 33 -71 71
-225 209 -253 226 -16 9 -56 32 -89 50 l-60 33 35 -32 c32 -29 33 -31 10 -25
-14 4 -50 22 -82 41 -31 19 -60 34 -64 34 -5 0 -49 18 -99 39 -62 28 -112 42
-160 47 -44 4 -79 14 -94 25 -14 12 -18 19 -10 19 11 0 11 2 -1 10 -28 18
-277 10 -359 -11z m414 -59 c3 -5 16 -10 28 -10 12 0 29 -5 37 -11 11 -7 -1
-8 -40 -3 -62 7 -73 11 -65 25 8 12 32 12 40 -1z m580 -210 c3 -6 -1 -7 -9 -4
-18 7 -21 14 -7 14 6 0 13 -4 16 -10z m290 -240 c3 -5 1 -10 -4 -10 -6 0 -11
5 -11 10 0 6 2 10 4 10 3 0 8 -4 11 -10z m142 -1072 c-3 -8 -6 -5 -6 6 -1 11
2 17 5 13 3 -3 4 -12 1 -19z m13 -842 c0 -2 -8 -10 -17 -17 -16 -13 -17 -12
-4 4 13 16 21 21 21 13z m-330 -21 c-7 -8 -17 -15 -22 -15 -6 0 -5 7 2 15 7 8
17 15 22 15 6 0 5 -7 -2 -15z m230 -48 c0 -2 -12 -14 -27 -28 l-28 -24 24 28
c23 25 31 32 31 24z m-574 -70 c-11 -7 -38 -28 -60 -47 -70 -59 -82 -66 -46
-26 36 40 98 85 115 85 6 0 1 -6 -9 -12z m155 -30 c-10 -9 -11 -8 -5 6 3 10 9
15 12 12 3 -3 0 -11 -7 -18z m-86 3 c-3 -5 -16 -15 -28 -21 -19 -9 -19 -8 3
10 28 23 34 26 25 11z m56 -54 c-15 -16 -21 -31 -17 -44 6 -16 1 -21 -31 -27
-20 -4 -50 -13 -66 -22 -47 -24 -20 5 39 43 30 19 61 46 70 60 9 13 19 22 22
19 3 -3 -5 -16 -17 -29z m-481 -161 c-13 -13 -32 -28 -44 -31 -11 -4 -32 -15
-46 -25 -29 -21 -91 -29 -97 -13 -5 16 57 53 125 75 79 25 90 24 62 -6z m616
-32 c-14 -20 -26 -31 -26 -23 0 8 -15 0 -37 -22 -41 -38 -73 -58 -95 -58 -7 1
1 8 17 17 17 9 47 31 68 50 21 18 42 31 47 28 5 -3 16 8 25 26 9 17 19 29 22
26 2 -3 -7 -23 -21 -44z m-264 15 c-6 -7 -39 -42 -74 -78 l-63 -65 -67 -1
c-38 -1 -68 0 -68 2 0 6 183 98 211 106 14 4 34 17 44 28 19 22 34 28 17 8z
m422 -23 c-29 -22 -42 -17 -15 6 13 11 26 17 29 14 3 -3 -3 -12 -14 -20z
m-1584 -131 c0 -2 -9 0 -20 6 -11 6 -20 13 -20 16 0 2 9 0 20 -6 11 -6 20 -13
20 -16z m700 -69 c-22 -16 -47 -25 -72 -25 -56 0 -46 13 25 31 86 22 85 22 47
-6z"/>
<path d="M2048 3303 c7 -3 16 -2 19 1 4 3 -2 6 -13 5 -11 0 -14 -3 -6 -6z"/>
<path d="M2105 3285 c17 -8 37 -14 45 -14 8 0 2 7 -15 14 -16 8 -37 14 -45 14
-8 0 -1 -7 15 -14z"/>
<path d="M1157 3199 c-22 -11 -37 -23 -34 -25 5 -6 87 33 87 41 0 9 -14 4 -53
-16z"/>
<path d="M1025 3120 c-3 -6 1 -7 9 -4 18 7 21 14 7 14 -6 0 -13 -4 -16 -10z"/>
<path d="M675 2900 c-10 -11 -16 -22 -13 -25 3 -3 13 6 22 20 20 30 16 32 -9
5z"/>
<path d="M569 2750 c-20 -12 -74 -89 -67 -96 3 -3 20 13 37 34 17 22 28 42 24
46 -3 3 1 6 10 6 9 0 19 5 22 10 8 12 -5 12 -26 0z"/>
<path d="M452 2588 c-12 -18 -32 -57 -45 -85 -13 -29 -30 -59 -37 -68 -11 -13
-10 -14 3 -9 9 3 19 14 22 25 3 10 25 50 47 89 41 70 49 111 10 48z"/>
<path d="M3050 2543 c0 -9 49 -90 50 -82 0 3 -9 24 -20 47 -19 39 -30 52 -30
35z"/>
<path d="M286 2235 c-9 -26 -7 -32 5 -12 6 10 9 21 6 23 -2 3 -7 -2 -11 -11z"/>
<path d="M269 2174 c-5 -15 -7 -29 -5 -32 5 -4 10 6 22 46 7 23 -7 12 -17 -14z"/>
<path d="M1115 2100 c-41 -54 -75 -103 -75 -109 0 -5 34 -55 75 -110 l75 -101
202 0 c112 0 208 4 214 8 9 6 54 120 54 137 0 3 -76 5 -169 5 l-169 0 -27 31
-26 32 22 23 c22 24 26 24 215 24 141 0 194 3 201 13 11 14 53 124 53 138 0 5
-120 9 -285 9 l-284 0 -76 -100z"/>
<path d="M1828 2128 c-15 -39 -25 -75 -22 -80 3 -4 74 -8 157 -8 l152 0 52
-92 51 -91 -31 -56 c-17 -31 -41 -73 -54 -93 l-23 -38 -165 0 -165 0 0 99 c0
54 -3 120 -7 146 l-6 47 -82 -218 c-45 -121 -81 -222 -78 -226 2 -5 149 -8
326 -8 l322 0 98 174 97 173 -97 172 -97 171 -200 0 -201 0 -27 -72z"/>
<path d="M3238 1865 c4 -211 9 -238 9 -50 1 83 -2 164 -6 180 -4 17 -5 -42 -3
-130z"/>
<path d="M492 1770 c0 -19 2 -27 5 -17 2 9 2 25 0 35 -3 9 -5 1 -5 -18z"/>
<path d="M482 1700 c0 -14 2 -19 5 -12 2 6 2 18 0 25 -3 6 -5 1 -5 -13z"/>
<path d="M1112 1597 c-39 -40 -72 -76 -72 -80 0 -4 105 -7 234 -7 l235 0 20
55 c11 30 23 66 27 80 l6 25 -189 0 -189 0 -72 -73z"/>
<path d="M481 1644 c0 -11 3 -14 6 -6 3 7 2 16 -1 19 -3 4 -6 -2 -5 -13z"/>
<path d="M3232 1630 c0 -14 2 -19 5 -12 2 6 2 18 0 25 -3 6 -5 1 -5 -13z"/>
<path d="M1422 1443 c-7 -12 -12 -38 -12 -57 0 -35 1 -36 38 -36 21 0 43 5 49
11 9 9 18 8 38 -5 20 -13 30 -15 40 -6 10 8 19 8 34 1 37 -20 80 -14 93 14 9
21 8 28 -7 45 -10 11 -13 20 -7 20 7 0 12 5 12 10 0 20 -73 11 -97 -12 l-23
-21 0 27 c0 33 -23 31 -28 -2 -4 -27 -17 -28 -50 -1 -23 18 -28 19 -38 5 -10
-14 -12 -13 -21 6 l-10 23 -11 -22z m233 -53 c3 -5 -1 -10 -10 -10 -9 0 -13 5
-10 10 3 6 8 10 10 10 2 0 7 -4 10 -10z"/>
<path d="M2560 1435 c-11 -30 -15 -31 -47 -5 -33 26 -43 25 -43 -2 l0 -21 -24
22 c-32 30 -95 26 -111 -6 -13 -25 -39 -16 -29 10 10 26 -67 23 -91 -3 l-18
-20 -14 20 c-10 13 -25 20 -49 20 -28 0 -38 -6 -54 -32 -17 -28 -20 -30 -20
-12 0 32 -23 46 -72 42 l-43 -3 -3 -47 c-3 -52 8 -60 48 -36 15 10 22 9 37 -5
21 -18 57 -18 89 1 17 9 24 9 33 -1 13 -17 140 -20 159 -5 9 8 19 7 36 -2 15
-8 39 -10 63 -6 21 4 49 7 63 7 14 1 30 5 36 10 7 6 22 4 39 -5 16 -8 32 -13
37 -10 12 8 10 114 -2 114 -6 0 -15 -11 -20 -25z m-144 -36 c10 -16 -11 -32
-34 -24 -13 4 -19 12 -15 21 6 16 39 19 49 3z m-151 -9 c3 -5 -1 -10 -10 -10
-9 0 -13 5 -10 10 3 6 8 10 10 10 2 0 7 -4 10 -10z"/>
<path d="M870 1435 c-10 -12 -10 -21 -2 -40 8 -18 8 -26 0 -31 -16 -10 18 -22
64 -23 25 -1 40 5 47 16 9 17 10 17 28 0 22 -19 74 -22 105 -6 14 8 23 8 31 0
7 -7 18 -6 37 4 24 13 30 13 40 0 14 -17 66 -14 98 6 18 11 24 11 40 -4 33
-30 45 -22 37 26 -10 57 -20 67 -72 67 -37 0 -46 -4 -50 -20 l-6 -21 -14 21
c-22 31 -93 25 -110 -10 -7 -14 -13 -20 -13 -13 0 23 -32 43 -69 43 -43 0 -61
-14 -61 -49 l0 -25 -22 23 c-16 16 -19 25 -10 28 28 11 9 23 -37 23 -31 0 -53
-5 -61 -15z m218 -42 c5 -17 -26 -29 -40 -15 -6 6 -7 15 -3 22 9 14 37 9 43
-7z"/>
<path d="M1805 1416 c-12 -59 0 -76 50 -76 36 0 48 5 60 24 15 22 15 27 0 55
-14 28 -20 31 -60 31 -42 0 -44 -1 -50 -34z m75 -21 c0 -19 -20 -29 -31 -18
-14 14 0 43 17 36 8 -3 14 -11 14 -18z"/>
<path d="M1365 590 c29 -12 124 -12 105 0 -8 5 -40 9 -70 9 -40 0 -49 -3 -35
-9z"/>
<path d="M890 543 c0 -10 38 -73 44 -73 2 0 -5 18 -16 40 -19 38 -28 49 -28
33z"/>
<path d="M1480 280 c20 -13 33 -13 25 0 -3 6 -14 10 -23 10 -15 0 -15 -2 -2
-10z"/>
</g>
</svg>
